<svg width="23" height="23" viewBox="0 0 23 23" fill="none" xmlns="http://www.w3.org/2000/svg">
<rect width="23" height="23" fill="black" fill-opacity="0"/>
<path fill-rule="evenodd" clip-rule="evenodd" d="M7.1875 0H15.8125C19.7814 0 23 3.21857 23 7.1875V15.8125C23 19.7814 19.7814 23 15.8125 23H7.1875C3.21857 23 0 19.7814 0 15.8125V7.1875C0 3.21857 3.21857 0 7.1875 0ZM15.8125 20.8438C18.5869 20.8438 20.8438 18.5869 20.8438 15.8125V7.1875C20.8438 4.41315 18.5869 2.15625 15.8125 2.15625H7.1875C4.41315 2.15625 2.15625 4.41315 2.15625 7.1875V15.8125C2.15625 18.5869 4.41315 20.8438 7.1875 20.8438H15.8125Z" fill="#D1D1D1"/>
<path fill-rule="evenodd" clip-rule="evenodd" d="M6 12C6 8.68652 8.68652 6 12 6C15.3135 6 18 8.68652 18 12C18 15.3135 15.3135 18 12 18C8.68652 18 6 15.3135 6 12ZM8.25 12C8.25 14.067 9.93298 15.75 12 15.75C14.067 15.75 15.75 14.067 15.75 12C15.75 9.93152 14.067 8.25 12 8.25C9.93298 8.25 8.25 9.93152 8.25 12Z" fill="#D1D1D1"/>
<path d="M18 7C18.5523 7 19 6.55228 19 6C19 5.44772 18.5523 5 18 5C17.4477 5 17 5.44772 17 6C17 6.55228 17.4477 7 18 7Z" fill="#D1D1D1"/>
</svg>
