<svg width="27" height="17" viewBox="0 0 27 17" fill="none" xmlns="http://www.w3.org/2000/svg">
<path d="M25.8956 17H0.454331C0.20344 17 0 16.7997 0 16.5526V0.447388C0 0.200332 0.20344 0 0.454331 0H25.8957C26.1466 0 26.35 0.200332 26.35 0.447388V16.5526C26.3499 16.7997 26.1465 17 25.8956 17Z" transform="translate(0.325012)" fill="#41479B"/>
<path d="M26.3499 0.447388C26.3499 0.200332 26.1465 0 25.8956 0H23.863L15.4464 5.43003V0H10.9034V5.43003L2.48687 0H0.45433C0.20344 0 0 0.200332 0 0.447388V1.60443L7.22095 6.26313H0V10.7368H7.22095L0 15.3956V16.5526C0 16.7997 0.20344 17 0.45433 17H2.48693L10.9035 11.57V17H15.4465V11.57L23.8631 17H25.8957C26.1466 17 26.35 16.7997 26.35 16.5526V15.3956L19.129 10.7369H26.3499V6.26318H19.1289L26.3499 1.60443V0.447388Z" transform="translate(0.325012)" fill="#F5F5F5"/>
<path d="M26.2986 7.14617H14.5096V0H11.789V7.14617H0V9.82595H11.789V16.9721H14.5096V9.82595H26.2986V7.14617Z" transform="translate(0.325012 0.013916)" fill="#FF4B55"/>
<path d="M9.17874 0L0 5.8689C0.0321028 6.08458 0.212649 6.25291 0.440554 6.25291H1.06509L10.8444 5.05952e-05H9.17874V0Z" transform="translate(0.33783 10.7332)" fill="#FF4B55"/>
<path d="M1.66565 0H0L9.76506 6.24365C9.99266 6.21977 10.1723 6.03672 10.1723 5.80621V5.43899L1.66565 0Z" transform="translate(16.4514 10.7332)" fill="#FF4B55"/>
<path d="M0 0.896143L8.3097 6.20935H9.97535L0.264168 0C0.109047 0.0709851 0 0.22353 0 0.403092V0.896143Z" transform="translate(0.325012 0.0574951)" fill="#FF4B55"/>
<path d="M1.66565 6.25286L10.8664 0.369801C10.8282 0.161247 10.6515 0 10.4287 0H9.77914L0 6.25286H1.66565Z" transform="translate(15.7415 0.013916)" fill="#FF4B55"/>
</svg>
