<svg width="29" height="20" viewBox="0 0 29 20" fill="none" xmlns="http://www.w3.org/2000/svg">
<rect width="29" height="20" fill="black" fill-opacity="0"/>
<path fill-rule="evenodd" clip-rule="evenodd" d="M21.1991 0C24.8901 0 26.8229 0.497437 27.8696 1.71686C28.9213 2.94171 29 4.81781 29 7.54004V12.4601C29 15.5795 28.4979 17.3813 27.3212 18.4849C26.1737 19.5611 24.4 20 21.1992 20H7.8006C1.20642 20 0 17.4609 0 12.4601V7.54004C0 4.95868 0 3.09363 1.01678 1.82776C2.05963 0.52948 4.02509 0 7.8006 0H21.1991ZM12.5339 13.7953L18.6181 10.6793C18.9272 10.5211 19.1207 10.2075 19.1204 9.86548C19.1199 9.5238 18.9255 9.21069 18.616 9.05316L12.5317 5.95721C12.2418 5.80957 11.8943 5.82098 11.6149 5.98724C11.3356 6.15356 11.1651 6.45056 11.1651 6.77069V12.9828C11.1651 13.3035 11.336 13.6008 11.6159 13.767C11.7646 13.8552 11.9324 13.8996 12.1006 13.8996C12.2491 13.8996 12.3979 13.8651 12.5339 13.7953Z" fill="#D1D1D1"/>
</svg>
