<svg width="58" height="58" viewBox="0 0 58 58" fill="none" xmlns="http://www.w3.org/2000/svg">
<rect width="58" height="58" fill="black" fill-opacity="0"/>
<path fill-rule="evenodd" clip-rule="evenodd" d="M14 47C14 44.8 15.8 43 18 43C20.2 43 22 44.8 22 47C22 49.2 20.2 51 18 51C15.8 51 14 49.2 14 47ZM16 47C16 48.1 16.9 49 18 49C19.1 49 20 48.1 20 47C20 45.9 19.1 45 18 45C16.9 45 16 45.9 16 47Z" fill="#333333"/>
<path fill-rule="evenodd" clip-rule="evenodd" d="M51.358 47.6H57.0646C57.6259 47.6 58 47.2218 58 46.6545V35.3091C58 35.0255 57.9065 34.8364 57.7194 34.6473L52.2 29.0691L46.6807 17.8182C46.4935 17.5345 46.2129 17.3455 45.8387 17.3455H44.9032V15.4545H46.7742V13.5637H43.0322V10.7273C43.0322 10.16 42.6581 9.7818 42.0968 9.7818H38.3549V6.94543C38.3549 6.37817 37.9806 6 37.4193 6H28.0646C27.5032 6 27.129 6.37817 27.129 6.94543V9.7818H23.3871C22.8258 9.7818 22.4517 10.16 22.4517 10.7273V13.5637H18.7097V15.4545H20.5807V17.3455H19.6451C19.271 17.3455 18.9904 17.5345 18.8032 17.9127L13.2838 28.9745L4.11609 33.6073C1.59033 34.8364 0 37.4836 0 40.32V46.6545C0 47.2218 0.374146 47.6 0.935425 47.6H10.3839C10.5709 49.3964 11.5065 51.0982 12.9097 52.3273H0.935425C0.374146 52.3273 0 52.7054 0 53.2727V57.0546C0 57.6218 0.374146 58 0.935425 58H57.0646C57.6259 58 58 57.6218 58 57.0546V53.2727C58 52.7054 57.6259 52.3273 57.0646 52.3273H48.9258C50.2355 51.0982 51.171 49.3964 51.358 47.6ZM3.74194 45.7091H1.87097V43.8182H3.74194V45.7091ZM1.87097 41.9272H3.74194V36.16C2.52576 37.2 1.87097 38.7127 1.87097 40.3199V41.9272ZM54.2581 33.7964L56.129 35.6873V40.0364H54.2581V33.7964ZM49.9548 28.6909L45.2773 19.2364H35.5483V28.6909H49.9548ZM41.1613 11.6727V13.5637H33.6774V11.6727H41.1613ZM36.4839 7.89093H29V9.78186H36.4839V7.89093ZM24.3226 11.6727H31.8065V13.5637H24.3226V11.6727ZM43.0323 15.4545H22.4517V17.3455H43.0323V15.4545ZM24.8839 28.6909H21.8904L29.9355 20.56V23.5854L24.8839 28.6909ZM29.9354 28.6909V26.2327L27.5032 28.6909H29.9354ZM20.2064 19.2364H28.6259L19.271 28.6909H15.5291L20.2064 19.2364ZM5.61292 34.9309V45.7091H10.3839C10.7581 42.3055 13.4709 39.6582 16.8387 39.1855C20.9548 38.6182 24.6968 41.5491 25.1646 45.7091H31.8065V32.4728H33.6775V45.7091H36.5774C36.9517 42.3055 39.6646 39.6582 43.0322 39.1855C47.1484 38.6182 50.8904 41.5491 51.358 45.7091H56.129V41.9273H53.3226C52.7614 41.9273 52.3871 41.5491 52.3871 40.9819V31.9055L51.0774 30.5818H34.6129C34.0516 30.5818 33.6775 30.2037 33.6775 29.6364V19.2364H31.8065V29.6364C31.8065 30.2037 31.4323 30.5818 30.871 30.5818H14.9678V32.4728H24.3226V34.3636H14.0322C13.4709 34.3636 13.0968 33.9855 13.0968 33.4182V31.1491L5.61292 34.9309ZM39.0098 52.3273H22.7323C24.042 51.0981 24.9774 49.3964 25.1646 47.6H36.4839C36.671 49.3964 37.6064 51.0981 39.0098 52.3273ZM17.7742 40.9818C14.687 40.9818 12.1613 43.5345 12.1613 46.6545C12.1613 49.7745 14.687 52.3273 17.7742 52.3273C20.8612 52.3273 23.3871 49.7745 23.3871 46.6545C23.3871 43.5345 20.8612 40.9818 17.7742 40.9818ZM56.129 54.2182V56.1091H1.87097V54.2182H56.129ZM38.3549 46.6545C38.3549 49.7745 40.8806 52.3273 43.9678 52.3273C47.0548 52.3273 49.5807 49.7745 49.5807 46.6545C49.5807 43.5345 47.0548 40.9818 43.9678 40.9818C40.8806 40.9818 38.3549 43.5345 38.3549 46.6545Z" fill="#333333"/>
<path fill-rule="evenodd" clip-rule="evenodd" d="M40 47C40 44.8 41.8 43 44 43C46.2 43 48 44.8 48 47C48 49.2 46.2 51 44 51C41.8 51 40 49.2 40 47ZM42 47C42 48.1 42.9 49 44 49C45.1 49 46 48.1 46 47C46 45.9 45.1 45 44 45C42.9 45 42 45.9 42 47Z" fill="#333333"/>
<rect x="26" y="33" width="4" height="2" fill="#333333"/>
<rect x="35" y="33" width="4" height="2" fill="#333333"/>
<path fill-rule="evenodd" clip-rule="evenodd" d="M19.5232 3.65649C18.5199 1.82068 16.3307 1.2699 14.5977 2.27966C13.9592 2.64673 13.4119 3.19751 13.0471 3.93188C12.9559 3.88599 12.8875 3.86304 12.8191 3.84009C12.7507 3.81714 12.6823 3.79419 12.5911 3.74829C12.1349 1.2699 9.76343 -0.382446 7.30066 0.0765381C5.47644 0.351929 4.01697 1.82068 3.6521 3.65649C1.64551 3.65649 0.00366211 5.21698 0.00366211 7.23645C-0.0876465 9.34772 1.5542 11 3.56091 11H15.4186C16.7867 11 17.8813 9.9903 18.155 8.70514C19.8881 7.69543 20.5265 5.49237 19.5232 3.65649ZM15.8748 8.98059C15.7834 9.07239 15.6011 9.16418 15.4186 9.16418H3.56091C2.55762 9.16418 1.73669 8.33801 1.73669 7.32831C1.73669 6.31854 2.55762 5.49243 3.56091 5.49243C3.74341 5.49243 4.01697 5.49243 4.19946 5.58423C4.65552 5.76782 5.20276 5.49243 5.38525 5.03345V4.66626V4.57446C5.38525 3.01404 6.57092 1.82068 8.12158 1.82068C9.67224 1.82068 10.858 3.01404 10.858 4.57446C10.858 5.12524 11.2228 5.49243 11.7701 5.49243C12.5911 5.49243 13.3207 6.04315 13.5032 6.86932C13.5944 7.32831 14.1416 7.69543 14.5977 7.5119C14.6433 7.5119 14.689 7.48895 14.7346 7.466C14.7802 7.44305 14.8258 7.4201 14.8713 7.4201C15.3274 7.14471 15.8748 7.23651 16.1483 7.69543C16.422 8.15442 16.3308 8.7052 15.8748 8.98059ZM14.9625 5.49237C16.057 5.30878 17.0604 5.76776 17.6989 6.68567C17.9725 6.41028 18.1549 5.95135 18.1549 5.49237C18.1549 4.48267 17.334 3.65649 16.3307 3.65649C15.5098 3.65649 14.78 4.20728 14.5977 4.94165C14.6432 5.03339 14.7117 5.12518 14.78 5.21692C14.8485 5.30872 14.9169 5.40057 14.9625 5.49237Z" fill="#333333"/>
</svg>
