<svg width="68" height="68" viewBox="0 0 68 68" fill="none" xmlns="http://www.w3.org/2000/svg">
<rect width="68" height="68" fill="black" fill-opacity="0"/>
<path fill-rule="evenodd" clip-rule="evenodd" d="M0 34C0 15.2523 15.2522 0 33.9999 0C52.7476 0 68 15.2524 68 34C68 52.7476 52.7476 68 33.9999 68C15.2522 68 0 52.7477 0 34ZM2.00012 34C2.00012 51.6447 16.3551 65.9999 33.9999 65.9999C51.6448 65.9999 65.9998 51.6449 65.9998 34C65.9998 16.3552 51.6448 2.00012 33.9999 2.00012C16.3551 2.00012 2.00012 16.3553 2.00012 34Z" fill="#333333"/>
<path fill-rule="evenodd" clip-rule="evenodd" d="M33.5 25C38.1868 25 42 28.8132 42 33.4999C42 38.1868 38.187 42 33.5 42C28.813 42 25 38.1868 25 33.4999C25 28.8132 28.8132 25 33.5 25ZM26.9739 33.4999C26.9739 37.0984 29.9016 40.0261 33.5 40.0261C37.0983 40.0261 40.0261 37.0984 40.0261 33.4999C40.0261 29.9014 37.0985 26.9739 33.5 26.9739C29.9015 26.9739 26.9739 29.9014 26.9739 33.4999Z" fill="#333333"/>
<path fill-rule="evenodd" clip-rule="evenodd" d="M60.2706 40.6686L60.2726 40.6691C60.7965 40.8145 61.107 41.3697 60.966 41.9091C59.5197 47.4466 56.5199 52.3714 52.2912 56.1511C48.0231 59.9661 42.8091 62.332 37.2132 62.9932C37.1754 62.9976 37.1375 63 37.1 63C36.6075 63 36.1827 62.6194 36.1252 62.1031V62.1023L36.1251 62.1017C35.4594 56.0511 37.4724 50.1141 41.6482 45.8126C46.4991 40.8152 53.6354 38.8447 60.2706 40.6686ZM37.993 60.8429C42.8124 60.0773 47.2923 57.9394 51.0035 54.6223C54.6776 51.3384 57.3527 47.1256 58.7848 42.3884C53.1101 41.1888 47.1566 43.0005 43.0377 47.2438C39.5251 50.8624 37.7167 55.7698 37.993 60.8429Z" fill="#333333"/>
<path fill-rule="evenodd" clip-rule="evenodd" d="M7.72742 40.6693L7.72925 40.6688C14.3651 38.8444 21.5007 40.8154 26.352 45.813C30.5276 50.1144 32.5406 56.0515 31.8749 62.1018L31.8748 62.1023V62.1031C31.8173 62.6191 31.3923 63 30.8998 63C30.8625 63 30.8246 62.9976 30.7866 62.9932C25.1909 62.332 19.9769 59.966 15.7088 56.1512C11.4801 52.3715 8.48035 47.447 7.034 41.9096C6.89301 41.3698 7.20349 40.8146 7.72742 40.6693ZM16.9965 54.6222C20.7076 57.9392 25.1874 60.0772 30.0069 60.8427C30.2833 55.7698 28.4749 50.8622 24.9625 47.2439C20.8433 43.0008 14.8896 41.189 9.21521 42.3885C10.6472 47.1256 13.3224 51.3384 16.9965 54.6222Z" fill="#333333"/>
<path fill-rule="evenodd" clip-rule="evenodd" d="M34.5002 6C42.0413 6 49.1505 8.90613 54.5181 14.1832C59.8804 19.4549 62.8929 26.4879 62.9999 33.9862C63.0061 34.4106 62.7426 34.7923 62.3428 34.9385C61.9431 35.0846 61.4943 34.9639 61.2234 34.6364C55.2455 27.4147 45.2556 23.1032 34.5 23.1032C23.7444 23.1032 13.7543 27.4147 7.77661 34.6364C7.5824 34.8714 7.29639 35 7.00269 35C6.88702 35 6.7702 34.9802 6.65717 34.9387C6.25751 34.7925 5.99408 34.4108 6.00012 33.9864C6.10742 26.4879 9.11975 19.4549 14.4821 14.1832C19.85 8.90613 26.9591 6 34.5002 6ZM8.19232 31.2216C14.6393 24.8429 24.2521 21.1048 34.5001 21.1048C44.7481 21.1048 54.3609 24.8429 60.8083 31.2216C60.0999 25.3109 57.4224 19.846 53.1094 15.6059C48.1196 10.7003 41.5108 7.99866 34.5003 7.99866C27.4898 7.99866 20.881 10.7003 15.891 15.6059C11.5781 19.846 8.90057 25.3109 8.19232 31.2216Z" fill="#333333"/>
</svg>
