<svg width="68" height="57" viewBox="0 0 68 57" fill="none" xmlns="http://www.w3.org/2000/svg">
<rect width="68" height="57" fill="black" fill-opacity="0"/>
<path fill-rule="evenodd" clip-rule="evenodd" d="M20 26C20 23.7944 21.7944 22 24 22C26.2056 22 28 23.7944 28 26C28 28.2056 26.2056 30 24 30C21.7944 30 20 28.2056 20 26ZM21.9613 26C21.9613 27.1242 22.8757 28.0386 24 28.0386C25.124 28.0386 26.0386 27.124 26.0386 26C26.0386 24.8758 25.124 23.9614 24 23.9614C22.8757 23.9614 21.9613 24.8758 21.9613 26Z" fill="#333333"/>
<path fill-rule="evenodd" clip-rule="evenodd" d="M31 26C31 23.7944 32.7946 22 35.0001 22C37.2057 22 39 23.7944 39 26C39 28.2056 37.2057 30 35.0001 30C32.7946 30 31 28.2056 31 26ZM32.9613 26C32.9613 27.1242 33.8757 28.0386 35 28.0386C36.124 28.0386 37.0387 27.1242 37.0387 26C37.0387 24.8758 36.1241 23.9614 35 23.9614C33.8759 23.9614 32.9613 24.8758 32.9613 26Z" fill="#333333"/>
<path fill-rule="evenodd" clip-rule="evenodd" d="M42 26C42 23.7944 43.7944 22 46 22C48.2054 22 50 23.7944 50 26C50 28.2056 48.2056 30 46 30C43.7944 30 42 28.2056 42 26ZM43.9613 26C43.9613 27.1242 44.8757 28.0386 46 28.0386C47.124 28.0386 48.0386 27.1242 48.0386 26C48.0386 24.8758 47.124 23.9614 46 23.9614C44.8759 23.9614 43.9613 24.8758 43.9613 26Z" fill="#333333"/>
<path fill-rule="evenodd" clip-rule="evenodd" d="M20 36C20 33.7944 21.7944 32 24 32C26.2056 32 28 33.7944 28 36C28 38.2056 26.2056 40 24 40C21.7944 40 20 38.2056 20 36ZM21.9613 36C21.9613 37.1242 22.8757 38.0386 24 38.0386C25.124 38.0386 26.0386 37.1242 26.0386 36C26.0386 34.8758 25.124 33.9614 24 33.9614C22.8757 33.9614 21.9613 34.8758 21.9613 36Z" fill="#333333"/>
<path fill-rule="evenodd" clip-rule="evenodd" d="M42 36C42 33.7944 43.7944 32 46 32C48.2054 32 49.9999 33.7944 50 36C50 38.2056 48.2056 40 46 40C43.7944 40 42 38.2056 42 36ZM43.9613 36C43.9613 37.1242 44.8757 38.0386 46 38.0386C47.124 38.0386 48.0385 37.1242 48.0386 36C48.0386 34.8758 47.124 33.9614 46 33.9614C44.8759 33.9614 43.9613 34.8758 43.9613 36Z" fill="#333333"/>
<path fill-rule="evenodd" clip-rule="evenodd" d="M31 36C31 33.7944 32.7946 32 35.0001 32C37.2057 32 39 33.7944 39 36C39 38.2056 37.2057 40 35.0001 40C32.7946 40 31 38.2056 31 36ZM32.9613 36C32.9613 37.1242 33.8757 38.0386 35 38.0386C36.124 38.0386 37.0387 37.1242 37.0387 36C37.0387 34.8758 36.1241 33.9614 35 33.9614C33.8759 33.9614 32.9613 34.8758 32.9613 36Z" fill="#333333"/>
<path fill-rule="evenodd" clip-rule="evenodd" d="M31 46.0001C31 43.7945 32.7944 42 35 42C37.2056 42 39 43.7945 39 46.0001C39 48.2056 37.2056 50 35 50C32.7944 50 31 48.2056 31 46.0001ZM32.9612 45.9999C32.9612 47.1241 33.8756 48.0385 35 48.0385C36.124 48.0385 37.0386 47.1241 37.0386 45.9999C37.0386 44.8756 36.1241 43.9612 35 43.9612C33.8757 43.9612 32.9613 44.8759 32.9612 45.9999Z" fill="#333333"/>
<path fill-rule="evenodd" clip-rule="evenodd" d="M20 46.0001C20 43.7945 21.7944 42 24 42C26.2056 42 28 43.7945 28 46.0001C28 48.2056 26.2056 50 24 50C21.7944 50 20 48.2056 20 46.0001ZM21.9613 45.9999C21.9613 47.1241 22.8757 48.0385 24 48.0385C25.124 48.0385 26.0385 47.1241 26.0386 45.9999C26.0386 44.8756 25.124 43.9612 24 43.9612C22.8757 43.9612 21.9613 44.8757 21.9613 45.9999Z" fill="#333333"/>
<path d="M15.3354 26L16.7235 24.6119C17.0922 24.2431 17.0922 23.6454 16.7233 23.2765C16.3547 22.9079 15.7569 22.9077 15.388 23.2766L14.0001 24.6646L12.6122 23.2766C12.2435 22.9079 11.6456 22.9077 11.2769 23.2765C10.908 23.6454 10.908 24.2431 11.2768 24.6119L12.6648 26L11.2768 27.3881C10.9078 27.7568 10.9078 28.3545 11.2766 28.7235C11.4609 28.9078 11.7026 29 11.9442 29C12.1858 29 12.4275 28.9078 12.6119 28.7234L13.9999 27.3354L15.3878 28.7234C15.5722 28.9078 15.8138 29 16.0555 29C16.2971 29 16.5388 28.9078 16.7231 28.7235C17.0919 28.3547 17.0919 27.7569 16.7232 27.3881L15.3354 26Z" fill="#333333"/>
<path d="M15.3354 36L16.7235 34.6119C17.0922 34.2431 17.0922 33.6454 16.7233 33.2765C16.3547 32.9079 15.7569 32.9077 15.388 33.2766L14.0001 34.6646L12.6122 33.2766C12.2435 32.9077 11.6456 32.9079 11.2769 33.2765C10.908 33.6454 10.908 34.2431 11.2768 34.6119L12.6648 36L11.2768 37.3881C10.9078 37.7568 10.9078 38.3545 11.2766 38.7235C11.4609 38.9078 11.7026 39 11.9442 39C12.1858 39 12.4275 38.9078 12.6119 38.7234L13.9999 37.3354L15.3878 38.7234C15.5722 38.9078 15.8138 39 16.0555 39C16.2971 39 16.5388 38.9078 16.7231 38.7235C17.0919 38.3547 17.0919 37.7569 16.7232 37.3881L15.3354 36Z" fill="#333333"/>
<path d="M16.7235 47.388L15.3356 46L16.7235 44.612C17.092 44.2432 17.092 43.6455 16.7232 43.2765C16.3544 42.9078 15.7567 42.9078 15.3878 43.2765L13.9999 44.6645L12.612 43.2765C12.2431 42.9078 11.6454 42.9078 11.2765 43.2765C10.9078 43.6453 10.9078 44.2431 11.2765 44.612L12.6645 46L11.2765 47.388C10.9078 47.7569 10.9078 48.3547 11.2765 48.7235C11.461 48.9078 11.7027 49 11.9443 49C12.1858 49 12.4275 48.9078 12.612 48.7235L13.9999 47.3355L15.3878 48.7235C15.5722 48.9078 15.8139 49 16.0555 49C16.2971 49 16.5388 48.9078 16.7232 48.7235C17.0922 48.3545 17.0922 47.7568 16.7235 47.388Z" fill="#333333"/>
<path fill-rule="evenodd" clip-rule="evenodd" d="M67.9427 50.4003L65.2261 36.1323C65.1234 35.593 64.6008 35.2388 64.0613 35.3413C63.5209 35.4437 63.166 35.9641 63.2687 36.5037L65.9854 50.7717C66.1373 51.5704 65.4617 52.3242 64.5415 52.3242H49.8005L59.3618 42.7822C59.5366 42.6077 59.6534 42.3526 59.6534 42.0792V17.5162L62.3853 31.8642C62.4879 32.4035 63.0099 32.7578 63.5498 32.6552C64.0903 32.5527 64.4452 32.0323 64.3425 31.4928L59.6469 6.83142C59.5793 5.36426 58.3656 4.1908 56.8794 4.1908H48.1495V0.994141C48.1495 0.444946 47.7037 0 47.1534 0C46.6033 0 46.1573 0.444946 46.1573 0.994141V4.19055H39.4862V0.994141C39.4862 0.444946 39.0404 0 38.4901 0C37.9399 0 37.494 0.444946 37.494 0.994141V4.19055H30.8228V0.994141C30.8228 0.444946 30.3768 0 29.8267 0C29.2764 0 28.8306 0.444946 28.8306 0.994141V4.19055H22.1594V0.994141C22.1594 0.444946 21.7135 0 21.1633 0C20.613 0 20.1672 0.444946 20.1672 0.994141V4.19055H13.496V0.994141C13.496 0.444946 13.0502 0 12.4999 0C11.9497 0 11.5038 0.444946 11.5038 0.994141V4.19055H2.77405C1.24451 4.1908 0 5.43262 0 6.95923V54.2316C0 55.7582 1.24451 57 2.77405 57H27.5024C28.0526 57 28.4985 56.5551 28.4985 56.0059C28.4985 55.4567 28.0526 55.0118 27.5024 55.0118H2.77405C2.34302 55.0118 1.99231 54.6619 1.99231 54.2318V17.0984H57.6613V41.0847H46.4802C44.9507 41.0847 43.7063 42.3267 43.7063 43.8532V55.0117H32.151C31.6007 55.0117 31.1549 55.4566 31.1549 56.0057C31.1549 56.5549 31.6007 56.9999 32.151 56.9999H44.7024C44.9595 56.9999 45.217 56.8982 45.4069 56.7088L47.8081 54.3123H64.5416C66.7051 54.3123 68.3298 52.4326 67.9427 50.4003ZM1.99231 15.1101V6.95923C1.99231 6.52917 2.34302 6.17908 2.77405 6.17908H11.5038V10.6446C11.5038 11.1937 11.9497 11.6387 12.4999 11.6387C13.0502 11.6387 13.496 11.1937 13.496 10.6446V6.17908H20.1671V10.6446C20.1671 11.1937 20.613 11.6387 21.1632 11.6387C21.7135 11.6387 22.1593 11.1937 22.1593 10.6446V6.17908H28.8306V10.6446C28.8306 11.1937 29.2764 11.6387 29.8267 11.6387C30.3768 11.6387 30.8228 11.1937 30.8228 10.6446V6.17908H37.494V10.6446C37.494 11.1937 37.9399 11.6387 38.4901 11.6387C39.0404 11.6387 39.4862 11.1937 39.4862 10.6446V6.17908H46.1573V10.6446C46.1573 11.1937 46.6033 11.6387 47.1534 11.6387C47.7037 11.6387 48.1495 11.1937 48.1495 10.6446V6.17908H56.8794C57.3103 6.17908 57.6611 6.52917 57.6611 6.95923V15.1102L1.99231 15.1101ZM45.6985 43.8533V53.6057L56.2522 43.0731H46.4801C46.0491 43.0731 45.6985 43.4232 45.6985 43.8533Z" fill="#333333"/>
</svg>
