<svg width="68" height="57" viewBox="0 0 68 57" fill="none" xmlns="http://www.w3.org/2000/svg">
<path fill-rule="evenodd" clip-rule="evenodd" d="M67.9427 50.4003L65.2261 36.1323C65.1234 35.593 64.6008 35.2388 64.0613 35.3413C63.5209 35.4437 63.166 35.9641 63.2687 36.5037L65.9854 50.7717C66.1373 51.5704 65.4617 52.3242 64.5415 52.3242H49.8005L59.3618 42.7822C59.5366 42.6077 59.6534 42.3526 59.6534 42.0792V17.5162L62.3853 31.8642C62.4879 32.4035 63.0099 32.7578 63.5498 32.6552C64.0903 32.5527 64.4452 32.0323 64.3425 31.4928L59.6469 6.83142C59.5793 5.36426 58.3656 4.1908 56.8794 4.1908H48.1495V0.994141C48.1495 0.444946 47.7037 0 47.1534 0C46.6033 0 46.1573 0.444946 46.1573 0.994141V4.19055H39.4862V0.994141C39.4862 0.444946 39.0404 0 38.4901 0C37.9399 0 37.494 0.444946 37.494 0.994141V4.19055H30.8228V0.994141C30.8228 0.444946 30.3768 0 29.8267 0C29.2764 0 28.8306 0.444946 28.8306 0.994141V4.19055H22.1594V0.994141C22.1594 0.444946 21.7135 0 21.1633 0C20.613 0 20.1672 0.444946 20.1672 0.994141V4.19055H13.496V0.994141C13.496 0.444946 13.0502 0 12.4999 0C11.9497 0 11.5038 0.444946 11.5038 0.994141V4.19055H2.77405C1.24451 4.1908 0 5.43262 0 6.95923V54.2316C0 55.7582 1.24451 57 2.77405 57H27.5024C28.0526 57 28.4985 56.5551 28.4985 56.0059C28.4985 55.4567 28.0526 55.0118 27.5024 55.0118H2.77405C2.34302 55.0118 1.99231 54.6619 1.99231 54.2318V17.0984H57.6613V41.0847H46.4802C44.9507 41.0847 43.7063 42.3267 43.7063 43.8532V55.0117H32.151C31.6007 55.0117 31.1549 55.4566 31.1549 56.0057C31.1549 56.5549 31.6007 56.9999 32.151 56.9999H44.7024C44.9595 56.9999 45.217 56.8982 45.4069 56.7088L47.8081 54.3123H64.5416C66.7051 54.3123 68.3298 52.4326 67.9427 50.4003ZM1.99231 15.1101V6.95923C1.99231 6.52917 2.34302 6.17908 2.77405 6.17908H11.5038V10.6446C11.5038 11.1937 11.9497 11.6387 12.4999 11.6387C13.0502 11.6387 13.496 11.1937 13.496 10.6446V6.17908H20.1671V10.6446C20.1671 11.1937 20.613 11.6387 21.1632 11.6387C21.7135 11.6387 22.1593 11.1937 22.1593 10.6446V6.17908H28.8306V10.6446C28.8306 11.1937 29.2764 11.6387 29.8267 11.6387C30.3768 11.6387 30.8228 11.1937 30.8228 10.6446V6.17908H37.494V10.6446C37.494 11.1937 37.9399 11.6387 38.4901 11.6387C39.0404 11.6387 39.4862 11.1937 39.4862 10.6446V6.17908H46.1573V10.6446C46.1573 11.1937 46.6033 11.6387 47.1534 11.6387C47.7037 11.6387 48.1495 11.1937 48.1495 10.6446V6.17908H56.8794C57.3103 6.17908 57.6611 6.52917 57.6611 6.95923V15.1102L1.99231 15.1101ZM45.6985 43.8533V53.6057L56.2522 43.0731H46.4801C46.0491 43.0731 45.6985 43.4232 45.6985 43.8533Z" fill="#333333"/>
</svg>
