<svg width="126" height="19" viewBox="0 0 126 19" fill="none" xmlns="http://www.w3.org/2000/svg">
<path fill-rule="evenodd" clip-rule="evenodd" d="M0 18V0.9375H6.12891C8.32423 0.9375 9.99413 1.33984 11.1387 2.14453C12.2832 2.94922 12.8555 4.11718 12.8555 5.64844C12.8555 6.53125 12.6523 7.28515 12.2461 7.91016C11.8398 8.53516 11.2422 8.99609 10.4531 9.29297C11.3438 9.52734 12.0273 9.96484 12.5039 10.6055C12.9805 11.2461 13.2188 12.0273 13.2188 12.9492C13.2188 14.6211 12.6895 15.8769 11.6309 16.7168C10.5723 17.5566 9.00392 17.9844 6.92578 18H0ZM4.11328 10.7461V14.8359H6.80859C7.55079 14.8359 8.12109 14.666 8.51953 14.3262C8.91797 13.9863 9.11719 13.5078 9.11719 12.8906C9.11719 11.4687 8.41016 10.7539 6.99609 10.7461H4.11328ZM4.11328 8.05078H6.25781C7.15625 8.04297 7.79687 7.87891 8.17969 7.55859C8.5625 7.23828 8.75391 6.76563 8.75391 6.14062C8.75391 5.42187 8.54688 4.9043 8.13281 4.58789C7.71875 4.27148 7.05079 4.11328 6.12891 4.11328H4.11328V8.05078ZM22.9688 8.89453L21.668 8.80078C20.4258 8.80078 19.6289 9.1914 19.2773 9.97266V18H15.3281V5.32031H19.0312L19.1602 6.94922C19.8242 5.70703 20.75 5.08594 21.9375 5.08594C22.3594 5.08594 22.7266 5.13281 23.0391 5.22656L22.9688 8.89453ZM31.1836 18C31.043 17.7422 30.918 17.3633 30.8086 16.8633C30.082 17.7773 29.0664 18.2344 27.7617 18.2344C26.5664 18.2344 25.5508 17.8731 24.7148 17.1504C23.8789 16.4277 23.4609 15.5195 23.4609 14.4258C23.4609 13.0508 23.9687 12.0117 24.9844 11.3086C26 10.6055 27.4766 10.2539 29.4141 10.2539H30.6328V9.58594C30.6328 8.42187 30.1289 7.83984 29.1211 7.83984C28.1836 7.83984 27.7148 8.30078 27.7148 9.22266H23.7656C23.7656 7.99609 24.2871 7 25.3301 6.23438C26.3731 5.46875 27.7031 5.08594 29.3203 5.08594C30.9375 5.08594 32.2148 5.48046 33.1523 6.26953C34.0898 7.0586 34.5703 8.14062 34.5938 9.51562V15.1289C34.6094 16.293 34.7891 17.1836 35.1328 17.8008V18H31.1836ZM28.7109 15.4219C29.2031 15.4219 29.6113 15.3164 29.9355 15.1055C30.2598 14.8945 30.4922 14.6563 30.6328 14.3906V12.3633H29.4844C28.1094 12.3633 27.4219 12.9805 27.4219 14.2148C27.4219 14.5742 27.543 14.8652 27.7852 15.0879C28.0273 15.3105 28.3359 15.4219 28.7109 15.4219ZM40.4062 5.32031L40.5352 6.80859C41.4102 5.66015 42.6172 5.08594 44.1562 5.08594C45.4766 5.08594 46.4629 5.48046 47.1152 6.26953C47.7676 7.0586 48.1055 8.24609 48.1289 9.83203V18H44.168V9.99609C44.168 9.35547 44.0391 8.88477 43.7812 8.58398C43.5234 8.2832 43.0547 8.13281 42.375 8.13281C41.6016 8.13281 41.0273 8.4375 40.6523 9.04688V18H36.7031V5.32031H40.4062ZM49.8164 11.5664C49.8164 9.55858 50.25 7.97657 51.1172 6.82031C51.9844 5.66406 53.1953 5.08594 54.75 5.08594C55.8828 5.08594 56.8359 5.53125 57.6094 6.42188V0H61.5703V18H58.0195L57.8203 16.6406C57.0078 17.7031 55.9766 18.2344 54.7266 18.2344C53.2187 18.2344 52.0234 17.6563 51.1406 16.5C50.2578 15.3437 49.8164 13.6992 49.8164 11.5664ZM53.7656 11.8125C53.7656 14.0625 54.4219 15.1875 55.7344 15.1875C56.6094 15.1875 57.2344 14.8203 57.6094 14.0859V9.25781C57.25 8.50781 56.6328 8.13281 55.7578 8.13281C54.5391 8.13281 53.8789 9.11718 53.7773 11.0859L53.7656 11.8125ZM78.2461 18H74.1562L68.1094 7.38281V18H63.9961V0.9375H68.1094L74.1445 11.5547V0.9375H78.2461V18ZM87.8086 18C87.668 17.7422 87.543 17.3633 87.4336 16.8633C86.707 17.7773 85.6914 18.2344 84.3867 18.2344C83.1914 18.2344 82.1758 17.8731 81.3398 17.1504C80.5039 16.4277 80.0859 15.5195 80.0859 14.4258C80.0859 13.0508 80.5937 12.0117 81.6094 11.3086C82.625 10.6055 84.1016 10.2539 86.0391 10.2539H87.2578V9.58594C87.2578 8.42187 86.7539 7.83984 85.7461 7.83984C84.8086 7.83984 84.3398 8.30078 84.3398 9.22266H80.3906C80.3906 7.99609 80.9121 7 81.9551 6.23438C82.9981 5.46875 84.3281 5.08594 85.9453 5.08594C87.5625 5.08594 88.8398 5.48046 89.7773 6.26953C90.7149 7.0586 91.1953 8.14062 91.2188 9.51562V15.1289C91.2344 16.293 91.4141 17.1836 91.7578 17.8008V18H87.8086ZM85.3359 15.4219C85.8281 15.4219 86.2363 15.3164 86.5605 15.1055C86.8848 14.8945 87.1172 14.6563 87.2578 14.3906V12.3633H86.1094C84.7344 12.3633 84.0469 12.9805 84.0469 14.2148C84.0469 14.5742 84.168 14.8652 84.4102 15.0879C84.6523 15.3105 84.9609 15.4219 85.3359 15.4219ZM97.1367 5.32031L97.2656 6.80859C98.1641 5.66015 99.3711 5.08594 100.887 5.08594C102.488 5.08594 103.57 5.72265 104.133 6.99609C104.992 5.72265 106.234 5.08594 107.859 5.08594C110.43 5.08594 111.75 6.64061 111.82 9.75V18H107.859V9.99609C107.859 9.34765 107.75 8.875 107.531 8.57812C107.312 8.28125 106.914 8.13281 106.336 8.13281C105.555 8.13281 104.973 8.48046 104.59 9.17578L104.602 9.33984V18H100.641V10.0195C100.641 9.35546 100.535 8.875 100.324 8.57812C100.113 8.28125 99.7109 8.13281 99.1172 8.13281C98.3594 8.13281 97.7812 8.48046 97.3828 9.17578V18H93.4336V5.32031H97.1367ZM120.211 18.2344C118.266 18.2344 116.691 17.6543 115.488 16.4941C114.285 15.334 113.684 13.8242 113.684 11.9648V11.6367C113.684 10.3398 113.924 9.19532 114.404 8.20312C114.885 7.21093 115.586 6.44336 116.508 5.90039C117.43 5.35742 118.523 5.08594 119.789 5.08594C121.57 5.08594 122.977 5.63867 124.008 6.74414C125.039 7.84962 125.555 9.39062 125.555 11.3672V12.9023H117.703C117.844 13.6133 118.152 14.1719 118.629 14.5781C119.105 14.9844 119.723 15.1875 120.48 15.1875C121.73 15.1875 122.707 14.75 123.41 13.875L125.215 16.0078C124.723 16.6875 124.025 17.2285 123.123 17.6309C122.221 18.0332 121.25 18.2344 120.211 18.2344ZM119.766 8.13281C118.609 8.13281 117.922 8.89843 117.703 10.4297H121.688V10.125C121.703 9.49218 121.543 9.00196 121.207 8.6543C120.871 8.30664 120.391 8.13281 119.766 8.13281Z" transform="translate(0.289062)" fill="#333333"/>
</svg>
