<svg width="35" height="14" viewBox="0 0 35 14" fill="none" xmlns="http://www.w3.org/2000/svg">
<rect width="34" height="14" fill="black" fill-opacity="0" transform="translate(34.0808) scale(-1 1)"/>
<path fill-rule="evenodd" clip-rule="evenodd" d="M0.794678 9.74536H1.74292C1.97705 8.5722 2.39417 6.96777 3.05676 6.11737C6.15454 2.13672 10.0442 0 14.9335 0C18.1014 0 20.1649 0.306946 21.2393 0.938049C21.3843 1.02338 21.812 1.27423 22.9672 3.57635C24.6536 3.6026 29.1144 3.90576 31.2534 6.29474C32.327 7.49341 32.7539 8.78174 32.9187 9.74457H33.366C33.7612 9.74457 34.0808 10.0621 34.0808 10.4536C34.0808 10.8444 33.7612 11.1626 33.3661 11.1626H33.0087C33.006 11.1962 33.0034 11.2228 33.0022 11.2348L33.0018 11.2389C32.9641 11.5983 32.6566 11.8723 32.2916 11.8723H31.391C30.838 13.1226 29.58 14 28.1157 14C26.6515 14 25.3934 13.1226 24.8389 11.8723H11.1906C10.6383 13.1226 9.37952 14 7.91516 14C6.45093 14 5.19214 13.1226 4.63977 11.8723H2.22803H2.21448C1.81934 11.8723 1.49817 11.5548 1.49817 11.1633H0.7948C0.400391 11.1633 0.0808105 10.8451 0.0808105 10.4543C0.0806885 10.0621 0.400269 9.74536 0.794678 9.74536ZM28.1157 12.582C29.299 12.582 30.2622 11.6283 30.2622 10.4543C30.2622 9.2804 29.2997 8.32587 28.1157 8.32587C26.931 8.32587 25.9669 9.28046 25.9669 10.4543C25.9668 11.6283 26.931 12.582 28.1157 12.582ZM15.7856 4.68817C15.587 4.68817 15.4276 4.52948 15.4276 4.33331L15.4283 2.18091C15.4283 1.98859 15.5833 1.83057 15.7766 1.82611C15.902 1.82385 16.026 1.82233 16.1499 1.82233C18.4248 1.82233 19.9427 2.0484 20.6998 2.52533C20.9272 2.71771 21.4025 3.6438 21.6647 4.17834C21.7191 4.2876 21.713 4.41718 21.6466 4.52124C21.5808 4.62457 21.4667 4.68817 21.3444 4.68817H15.7856ZM14.7106 4.33331V2.28125C14.7106 2.18018 14.666 2.08356 14.5905 2.01617C14.5142 1.94879 14.4128 1.9151 14.3109 1.92859C11.7919 2.22205 9.85461 3.04785 9.12549 4.13715C9.05212 4.24646 9.04688 4.38574 9.10889 4.50104C9.17004 4.61627 9.29236 4.68817 9.42468 4.68817H14.3539C14.5496 4.68817 14.7106 4.52942 14.7106 4.33331ZM10.0623 10.4543C10.0623 11.6283 9.09814 12.582 7.91504 12.582C6.73181 12.582 5.7677 11.6283 5.7677 10.4543C5.7677 9.28046 6.73108 8.32587 7.91504 8.32587C9.099 8.32587 10.0623 9.2804 10.0623 10.4543Z" fill="white"/>
</svg>
