<svg width="22" height="12" viewBox="0 0 22 12" fill="none" xmlns="http://www.w3.org/2000/svg">
<rect width="22" height="12" fill="black" fill-opacity="0"/>
<path fill-rule="evenodd" clip-rule="evenodd" d="M11 0C16.916 0 21.6394 5.32874 21.8357 5.55536C22.0548 5.80859 22.0548 6.19141 21.8357 6.44464C21.6393 6.67126 16.9159 12 11 12C5.08414 12 0.360748 6.67126 0.164337 6.44464C-0.0547791 6.19141 -0.0547791 5.80859 0.164337 5.55536C0.360748 5.32874 5.08401 0 11 0ZM6.48831 6C6.48831 8.57294 8.51248 10.6666 11 10.6666C13.4876 10.6666 15.5117 8.57294 15.5117 6C15.5117 3.42706 13.4876 1.33331 11 1.33331C8.51248 1.33331 6.48831 3.42706 6.48831 6Z" fill="white"/>
<path d="M11.6309 4.8C11.6309 4.1964 11.9332 3.6654 12.3929 3.3388C11.9804 3.1294 11.5202 3 11.0258 3C9.35745 3 8 4.34588 8 6C8 7.65412 9.35745 9 11.0258 9C12.5195 9 13.7558 7.91864 14 6.50568C12.7814 6.89468 11.6309 5.98088 11.6309 4.8Z" fill="white"/>
</svg>
