<svg width="22" height="21" viewBox="0 0 22 21" fill="none" xmlns="http://www.w3.org/2000/svg">
<path fill-rule="evenodd" clip-rule="evenodd" d="M9.59833 1.97525C12.2785 -0.658417 16.6393 -0.658417 19.3196 1.97525C21.9998 4.60892 21.9998 8.89395 19.3196 11.5276C17.4888 13.3277 14.8376 13.9055 12.3904 13.126L10.788 14.6798C10.6708 14.795 10.5121 14.8596 10.3461 14.8596H9.20374V16.003C9.20374 16.1781 9.1275 16.3448 8.99445 16.4617C8.86084 16.578 8.68323 16.6361 8.5069 16.6128L7.55731 16.5043L7.43341 17.7971C7.40533 18.091 7.16919 18.323 6.87012 18.3506L5.55444 18.4723L5.66431 19.4054C5.68628 19.5919 5.62036 19.7777 5.48547 19.9103L4.60187 20.7792C4.48468 20.8943 4.32605 20.9591 4.16003 20.9591H0.624878C0.27948 20.9591 0 20.6845 0 20.3451V16.8714C0 16.7083 0.065918 16.5524 0.183105 16.4372L7.92438 8.83035C7.13171 6.4252 7.76758 3.7742 9.59833 1.97525ZM14.9008 6.31729C15.6319 7.03568 16.8206 7.03568 17.5517 6.31729C18.2828 5.59891 18.2828 4.43082 17.5517 3.71243C16.8206 2.99405 15.6319 2.99405 14.9008 3.71243C14.1697 4.43082 14.1697 5.59891 14.9008 6.31729Z" transform="translate(0.020874 0.0408936)" fill="#DE9A2E"/>
</svg>
