<svg width="18" height="24" viewBox="0 0 18 24" fill="none" xmlns="http://www.w3.org/2000/svg">
<path fill-rule="evenodd" clip-rule="evenodd" d="M12.9049 5.51221C12.9049 8.5564 10.9048 11.0243 8.43774 11.0243C5.97052 11.0243 3.9704 8.5564 3.9704 5.51221C3.9704 2.4679 4.6272 0 8.43774 0C12.2483 0 12.9049 2.4679 12.9049 5.51221ZM10.8839 11.4473C16.101 12.4038 16.7828 13.9149 16.8655 19.2181C16.8708 19.5573 16.8736 19.616 16.875 19.5857L16.8747 19.9978C16.8747 19.9978 15.6324 22.5415 8.43768 22.5415C1.2428 22.5415 0.000671387 19.9978 0.000671387 19.9978C0.000671387 19.702 0.000305176 19.5323 0 19.4407C0.00140381 19.4896 0.00500488 19.4674 0.0128174 19.0458C0.10791 13.8821 0.831177 12.3933 5.99139 11.4473C5.99139 11.4473 6.72595 12.3979 8.43768 12.3979C10.1494 12.3979 10.8839 11.4473 10.8839 11.4473Z" transform="translate(0.510742 0.571411)" fill="black"/>
</svg>
