<svg width="35" height="26" viewBox="0 0 35 26" fill="none" xmlns="http://www.w3.org/2000/svg">
<rect width="35" height="25.2326" fill="black" fill-opacity="0"/>
<path fill-rule="evenodd" clip-rule="evenodd" d="M32.8482 5.70316C32.8195 5.69949 32.7905 5.69766 32.7614 5.69766H26.6567C26.3195 5.69778 26.0464 5.94083 26.0465 6.24057C26.0465 6.29095 26.0544 6.34109 26.07 6.38953L27.291 10.188C27.3659 10.4208 27.6052 10.5812 27.8776 10.5814H32.1509C32.4547 10.5815 32.7122 10.3831 32.7553 10.1158L33.3658 6.31735C33.4138 6.02066 33.182 5.7457 32.8482 5.70316ZM29.0986 9.49609H28.338L27.4662 6.78293H29.0986V9.49609ZM30.3195 9.49609H31.6216L32.0576 6.78293H30.3195V9.49609Z" fill="#333333"/>
<path fill-rule="evenodd" clip-rule="evenodd" d="M33.9924 15.986C32.9064 14.363 31.0982 13.3918 29.1648 13.3929C28.4058 13.3928 27.6541 13.544 26.9525 13.838L24.0266 1.93912C23.6891 0.568146 22.3203 -0.265594 20.9692 0.0768738C20.5258 0.189301 20.1207 0.421875 19.7974 0.749817L18.2507 2.31918L19.0757 3.15625L20.6224 1.58688C21.1501 1.04877 22.0078 1.04657 22.5381 1.582C22.7138 1.75931 22.8381 1.98218 22.8977 2.22623L23.7472 5.67987L18.955 11.3529C18.0011 12.5122 16.6304 13.2368 15.1475 13.3656L13.5734 6.88101H15.1627V5.69705H11.0787V6.88101H12.3716L13.3314 10.8438L10.979 13.0465L9.15753 11.1984C9.04816 11.0874 8.89978 11.0249 8.74506 11.0249H2.32739V12.2089H8.50354L10.1208 13.8499L9.33313 14.5875C6.75916 12.6246 3.10431 13.1507 1.1698 15.7624C-0.764648 18.3742 -0.246216 22.0827 2.32776 24.0456C4.90173 26.0085 8.55658 25.4824 10.4911 22.8706C10.8249 22.4199 11.0936 21.9232 11.2888 21.3953L16.2969 21.6807V21.6777C16.3024 21.6777 16.3076 21.6786 16.3129 21.6795C16.3182 21.6804 16.3234 21.6812 16.329 21.6812C17.6178 21.6812 18.6627 20.6211 18.6627 19.3133C18.6606 18.8838 18.5424 18.4632 18.3207 18.0974L25.0027 10.7964L25.8924 14.4146C23.2281 16.2503 22.5347 19.93 24.3438 22.6335C26.1529 25.3371 29.7794 26.0406 32.4438 24.2049C35.1082 22.3692 35.8015 18.6895 33.9924 15.986ZM10.0513 17.3L8.03796 17.4136L9.32849 16.203C9.61902 16.5324 9.86243 16.9016 10.0513 17.3ZM1.13226 19.3416C1.14795 21.9571 3.25024 24.0645 5.82794 24.0486C7.63397 24.0417 9.27582 22.9839 10.0502 21.3285L5.79529 21.0887V21.0846C4.83142 21.084 4.05011 20.2913 4.04956 19.3132C4.04895 18.3344 4.83063 17.5404 5.79529 17.5398V17.5368L6.20721 17.5143L8.44989 15.4146C7.6626 14.8635 6.72754 14.5711 5.77118 14.5771C3.19354 14.593 1.11664 16.7262 1.13226 19.3416ZM6.41138 19.3127C6.41138 19.6396 6.15015 19.9047 5.82794 19.9047C5.50574 19.9047 5.24451 19.6396 5.24451 19.3127C5.24451 18.9858 5.50574 18.7207 5.82794 18.7207C6.15015 18.7207 6.41138 18.9858 6.41138 19.3127ZM7.44287 19.9935L14.2573 20.3777C13.9092 19.7112 13.9092 18.9131 14.2573 18.2466L7.44287 18.6307V18.6319C7.62268 19.0674 7.62268 19.558 7.44287 19.9935ZM11.2894 17.2278C11.0373 16.5529 10.6652 15.9308 10.1913 15.3926L13.6498 12.155L14.8295 17.0283L11.2894 17.2278ZM16.3354 20.4967V20.5014C16.9799 20.5014 17.5022 19.9714 17.5022 19.3174C17.5022 18.6635 16.9799 18.1335 16.3354 18.1335H16.3085C15.7222 18.1712 15.2549 18.6453 15.2178 19.2403C15.1771 19.8928 15.6654 20.4553 16.3085 20.4967H16.3354ZM17.4871 17.2692C17.1361 17.0595 16.7368 16.9476 16.3295 16.9448C16.3234 16.9448 16.3176 16.9457 16.3118 16.9466C16.3071 16.9473 16.3024 16.9481 16.2975 16.9483V16.9448L16.0157 16.9608L15.4282 14.5336C17.1492 14.3337 18.7285 13.4692 19.8383 12.1195L24.0914 7.08762L24.6661 9.42419L17.4871 17.2692ZM29.1649 24.0486C29.8367 24.0501 30.501 23.9046 31.1123 23.6218C33.4578 22.5367 34.4921 19.7278 33.4227 17.3479C32.3533 14.968 29.585 13.9185 27.2396 15.0036C27.7025 16.4708 28.504 17.8046 29.5773 18.8942L28.7524 19.7312C27.6186 18.5764 26.7549 17.1778 26.225 15.6389C25.1316 16.5381 24.4968 17.8903 24.4976 19.3185C24.4991 21.9324 26.5887 24.0501 29.1649 24.0486Z" fill="#333333"/>
</svg>
