<svg width="40" height="18" viewBox="0 0 40 18" fill="none" xmlns="http://www.w3.org/2000/svg">
<rect width="40" height="17.2414" fill="black" fill-opacity="0" transform="translate(40) scale(-1 1)"/>
<path d="M15.6513 6.89655H17.4522C17.7166 6.89655 17.931 7.20522 17.931 7.5862C17.931 7.96718 17.7166 8.27586 17.4522 8.27586H15.6513C15.3868 8.27586 15.1724 7.96718 15.1724 7.5862C15.1724 7.20522 15.3869 6.89655 15.6513 6.89655Z" fill="black"/>
<path fill-rule="evenodd" clip-rule="evenodd" d="M33.7931 12.7586C33.7931 11.808 33.0197 11.0345 32.069 11.0345C31.1182 11.0345 30.3448 11.808 30.3448 12.7586C30.3448 13.7093 31.1182 14.4828 32.069 14.4828C33.0197 14.4828 33.7931 13.7093 33.7931 12.7586ZM32.7185 12.7586C32.7185 13.1169 32.427 13.4082 32.0688 13.4082C31.7107 13.4082 31.4194 13.1169 31.4193 12.7586C31.4193 12.4004 31.7107 12.109 32.0688 12.109C32.4271 12.109 32.7185 12.4004 32.7185 12.7586Z" fill="black"/>
<path fill-rule="evenodd" clip-rule="evenodd" d="M8.27588 12.7586C8.27588 11.808 7.34778 11.0345 6.20691 11.0345C5.06604 11.0345 4.13794 11.808 4.13794 12.7586C4.13794 13.7093 5.06604 14.4828 6.20691 14.4828C7.34778 14.4828 8.27588 13.7093 8.27588 12.7586ZM6.98645 12.7586C6.98645 13.1169 6.63672 13.4082 6.20691 13.4082C5.77722 13.4082 5.42749 13.1169 5.42749 12.7586C5.42749 12.4004 5.7771 12.109 6.20691 12.109C6.63684 12.109 6.98645 12.4004 6.98645 12.7586Z" fill="black"/>
<path fill-rule="evenodd" clip-rule="evenodd" d="M0.0465088 9.5181C0.202393 8.30634 0.744507 7.1445 1.58801 6.25043C2.3938 5.39645 3.4563 4.7883 4.60852 4.53009L7.04272 2.23074C8.56555 0.792267 10.5641 0 12.6702 0H17.3911C20.0059 0 22.626 0.609222 24.9683 1.76166C25.2711 1.91077 25.3944 2.27432 25.2438 2.57367C25.093 2.8732 24.7253 2.99518 24.4226 2.84616C22.2489 1.77664 19.8175 1.21127 17.3911 1.21127H14.2682L13.7747 4.82135L28.9038 5.40186L26.6068 4.06964C26.3149 3.90039 26.2172 3.52933 26.3883 3.24078C26.5594 2.9523 26.9347 2.85544 27.2266 3.02469L31.4983 5.50229L33.655 5.59714C34.3386 5.6272 34.9977 5.77438 35.6099 6.01996L35.6121 6.02063L35.6133 6.02103C35.6284 6.02588 35.6436 6.03076 35.6586 6.0369C36.9209 6.55426 37.9445 7.47437 38.5862 8.63623C38.7224 8.88297 38.8403 9.13937 38.9407 9.40253C39.0819 9.77289 39.1967 10.1557 39.311 10.5372L39.3129 10.5435C39.3599 10.7008 39.4069 10.8578 39.4557 11.0137L39.8727 12.3472L39.9177 12.4913C40.0891 13.039 39.99 13.6177 39.6459 14.0791C39.3019 14.5405 38.772 14.8051 38.1923 14.8051H35.8463C35.2262 16.2362 33.7878 17.2414 32.1162 17.2414C30.4447 17.2414 29.0063 16.2361 28.3861 14.8051H26.1698H9.64636C9.02612 16.2362 7.58777 17.2414 5.91626 17.2414C4.24475 17.2414 2.8064 16.2361 2.18628 14.8051H0.612549C0.27417 14.8051 0 14.534 0 14.1994V10.2407C-0.00012207 9.99893 0.015625 9.75757 0.0465088 9.5181ZM2.93567 6.65747L2.90955 6.67886C2.13135 7.32132 1.57678 8.21432 1.34705 9.19052C2.24854 9.03384 2.93567 8.25394 2.93567 7.31824V6.65747ZM7.88879 3.10675C9.18262 1.88449 10.8807 1.21136 12.6702 1.21146H13.032L12.5449 4.77423L6.37415 4.53745L7.88879 3.10675ZM37.6934 9.58292C37.667 9.52289 37.6395 9.46341 37.6104 9.40469L37.6082 9.40042C37.2382 8.65686 36.676 8.03317 35.9934 7.58331V7.75058C35.9934 8.73303 36.751 9.54373 37.7188 9.64163L37.6934 9.58292ZM30.9504 15.7814C30.4982 15.5784 30.1034 15.2567 29.8142 14.8575C29.4728 14.3865 29.2853 13.8119 29.2849 13.232C29.2849 11.6864 30.5551 10.4305 32.1161 10.4305C33.6772 10.4305 34.9473 11.6864 34.9473 13.2301C34.9473 13.4675 34.9146 13.706 34.8545 13.9355C34.6957 14.5413 34.3274 15.0834 33.8236 15.4616C33.3346 15.8288 32.7301 16.0299 32.116 16.0299C31.7151 16.0299 31.3157 15.9453 30.9504 15.7814ZM28.0765 13.5938C28.0654 13.473 28.0598 13.3515 28.0598 13.2303C28.0598 11.0186 29.8795 9.21927 32.116 9.21927C34.3525 9.21927 36.1722 11.0186 36.1722 13.2303V13.2339C36.1722 13.3503 36.1665 13.4749 36.1556 13.5937H38.192C38.3785 13.5937 38.5491 13.5085 38.6598 13.36C38.7705 13.2116 38.8024 13.0253 38.7472 12.8491L38.1238 10.8559C38.0546 10.8604 37.9852 10.8629 37.9158 10.8629C36.1803 10.8629 34.7683 9.46674 34.7683 7.75049V7.05466C34.7683 7.04568 34.7686 7.03671 34.7689 7.02777L34.7694 7.00854C34.3953 6.89444 34.0033 6.82489 33.6003 6.80722L31.2955 6.70584L27.7213 6.56873C27.9514 8.00266 28.2699 11.1463 27.1931 13.5937L28.0765 13.5938ZM25.8276 13.5937H18.1318C16.8422 13.5291 15.8535 13.0722 15.1099 12.1966C13.5663 10.379 13.567 7.28238 13.6395 6.02838L26.4692 6.52066C26.6847 7.76639 27.136 11.3022 25.8276 13.5937ZM3.09094 13.4125C3.18884 14.8556 4.43884 16.0301 5.91602 16.0301C7.44434 16.0301 8.74731 14.7413 8.74731 13.2303C8.74731 11.6866 7.47729 10.4307 5.91614 10.4307C4.3551 10.4307 3.08496 11.6866 3.08496 13.2303C3.08496 13.2915 3.08691 13.3522 3.09094 13.4125ZM1.87646 13.5937H1.22473L1.22485 10.4228C2.86206 10.3148 4.16077 8.96408 4.16077 7.3183V6.62247C4.16077 6.39905 4.13635 6.17911 4.08948 5.96417C4.36584 5.8483 4.65637 5.75775 4.95886 5.6954L12.4131 5.98141C12.3284 7.41379 12.3473 10.8239 14.1692 12.9725C14.3629 13.201 14.5717 13.4074 14.7936 13.5937H9.95557C9.96643 13.4733 9.97217 13.3501 9.97217 13.2303C9.97217 11.0185 8.15259 9.21924 5.91602 9.21924C5.84607 9.21924 5.77661 9.22104 5.70764 9.22452C3.44409 9.33838 1.67078 11.3575 1.87646 13.5937Z" fill="#333333"/>
</svg>
