<svg width="35" height="22" viewBox="0 0 35 22" fill="none" xmlns="http://www.w3.org/2000/svg">
<rect width="35" height="21.1458" fill="black" fill-opacity="0" transform="translate(35) scale(-1 1)"/>
<path d="M31.5351 19.3206C31.7771 19.0724 32.0007 18.8062 32.1997 18.5294C32.4197 18.2238 32.8717 18.1373 33.2096 18.336C33.5475 18.5348 33.6433 18.9438 33.4235 19.2494C33.1858 19.5798 32.9188 19.8975 32.6302 20.1938C32.4859 20.3419 31.9968 20.5794 31.5998 20.2524C31.3018 20.007 31.2685 19.5941 31.5351 19.3206Z" fill="#333333"/>
<path fill-rule="evenodd" clip-rule="evenodd" d="M27.0099 1.03082C27.203 1.03082 27.3662 1.19489 27.3662 1.38895V3.18576C27.3662 3.37982 27.203 3.54388 27.0099 3.54388C26.8168 3.54388 26.6537 3.37982 26.6537 3.18576V1.38895C26.6537 1.19489 26.8168 1.03082 27.0099 1.03082ZM25.6279 1.86563L25.6232 1.86465C25.5735 1.8544 25.5238 1.84418 25.4749 1.83499C25.464 1.83301 25.4315 1.82697 25.4012 1.86002C25.3802 1.88303 25.3738 1.90988 25.382 1.93976L25.6279 2.83588V1.86563ZM24.8872 4.01379L25.0769 4.70456C25.1169 4.85028 25.0632 4.96292 25.0276 5.01715C24.9921 5.07126 24.9103 5.16531 24.7612 5.18594L23.1284 5.41153C23.024 5.42596 22.9174 5.39587 22.8357 5.32895L21.7646 4.4516L24.8872 4.01379ZM11.5227 12.4926L13.6075 11.0752C13.1616 10.6256 12.5505 10.3646 11.9114 10.3646C10.592 10.3646 9.51868 11.4433 9.51868 12.7691C9.51868 13.883 10.2765 14.8222 11.301 15.0941L11.0773 14.7547C10.5852 14.0088 10.785 12.994 11.5227 12.4926ZM8.58972 13.5784C8.64893 13.8241 8.73425 14.0597 8.84314 14.2817C8.53345 14.4897 8.30981 14.8069 8.21948 15.1737H7.48315C6.79089 15.1737 6.1261 14.8791 5.65942 14.3653L5.20251 13.8625C5.13794 13.7915 5.15613 13.7174 5.17285 13.6797C5.18933 13.6418 5.23157 13.5784 5.32727 13.5784H8.58972ZM28.392 2.94931C28.392 2.94931 28.4015 3.57562 28.2094 3.87296C28.9576 4.55383 29.8525 4.74695 30.5005 4.78342C29.9065 4.05255 29.2025 3.43994 28.392 2.94931ZM33.9581 11.9572C33.9171 11.9967 33.8811 11.9799 33.8656 11.9727L29.9399 10.1353L31.7106 9.4462C32.7651 9.95297 33.5281 10.7654 33.9778 11.8646C33.9838 11.8791 33.9995 11.9176 33.9581 11.9572ZM25.3193 14.9327C25.3815 16.7165 26.822 18.1138 28.5991 18.1138C30.4088 18.1138 31.8811 16.6343 31.8811 14.8156C31.8811 13.1737 30.681 11.8086 29.1161 11.5587L29.2357 12.8279C30.0828 13.102 30.677 13.9044 30.677 14.8156C30.677 15.967 29.7449 16.9038 28.5991 16.9038C27.6412 16.9038 26.8038 16.2373 26.58 15.3085L25.3241 14.9106L25.319 14.9293L25.3193 14.9327ZM28.1444 15.7678C28.1698 15.7695 28.1951 15.7707 28.2203 15.7707C28.4827 15.7708 28.7408 15.6824 28.9521 15.5138C29.2585 15.269 29.4233 14.8885 29.3931 14.4962L29.3923 14.4877L29.3538 14.0795C29.5389 14.2719 29.6514 14.5334 29.6514 14.8155C29.6514 15.3987 29.1793 15.873 28.5992 15.873C28.4376 15.873 28.2832 15.835 28.1444 15.7678ZM28.3705 14.5792L28.022 10.882L27.3845 11.1301L27.3835 11.1305C26.655 11.4144 26.0984 12.0363 25.8942 12.7943L25.5924 13.9146L28.1747 14.7327C28.2413 14.7537 28.2905 14.7255 28.314 14.7068C28.3369 14.6884 28.3748 14.6473 28.3705 14.5792ZM14.964 17.3198C14.36 17.3198 13.8002 17.0177 13.4664 16.5116L11.9319 14.1851C11.7494 13.9085 11.8236 13.5321 12.097 13.3461L15.8364 10.804C16.2604 10.5159 16.5161 10.0367 16.5205 9.52231C16.5248 9.00797 16.2772 8.52438 15.8582 8.229L11.8953 5.43552C11.7791 5.35342 11.7887 5.24197 11.8048 5.18289C11.8209 5.12375 11.8691 5.02289 12.0109 5.0119L19.5271 4.43085C19.8749 4.40414 20.2137 4.51096 20.4834 4.73196L22.1875 6.12793C22.4889 6.37488 22.8831 6.48618 23.2679 6.43268L24.9008 6.20706C25.3026 6.15161 25.6609 5.92456 25.884 5.58423C26.1071 5.24384 26.1732 4.82333 26.0654 4.43045L25.976 4.1044C26.2292 4.39203 26.8397 4.62933 27.3948 4.51871C29.0231 6.00229 30.9919 5.8212 31.1992 5.80212L31.2111 5.80106C31.4963 6.27844 31.7452 6.79373 31.9565 7.34689C32.1215 7.77798 31.9098 8.26312 31.4851 8.42844L28.0059 9.78268L13.0461 13.5504C12.7714 13.6196 12.6045 13.8996 12.6732 14.1757C12.7317 14.4097 12.9583 14.6054 13.2955 14.5504L25.3616 11.5114C25.1587 11.8199 25.0021 12.1609 24.9039 12.525L23.8228 16.5391C23.6989 16.9988 23.2815 17.3198 22.8076 17.3198H14.964ZM12.4727 16.8707L12.0306 16.2005C11.9908 16.2019 10.303 16.1174 9.43079 15.1292C9.29199 15.2159 9.20044 15.3708 9.20044 15.5393V16.3878C9.20044 16.6541 9.41589 16.8707 9.68079 16.8707H12.4727ZM10.5867 17.9015C9.60364 19.2818 8.01697 20.115 6.29883 20.115C3.39124 20.115 1.02563 17.7376 1.02551 14.8156C1.02551 12.2009 2.92786 9.9812 5.47778 9.58124C5.66284 9.87183 5.88818 10.1756 6.15906 10.4901C3.84839 10.5647 1.99121 12.4756 1.99121 14.8155C1.99121 17.2026 3.92358 19.1446 6.29883 19.1446C7.44641 19.1446 8.54639 18.6808 9.35339 17.8651C9.45886 17.8886 9.56824 17.9015 9.68066 17.9015H10.5867Z" fill="#333333"/>
</svg>
