<svg width="35" height="26" viewBox="0 0 35 26" fill="none" xmlns="http://www.w3.org/2000/svg">
<rect width="35" height="25.1087" fill="black" fill-opacity="0"/>
<path fill-rule="evenodd" clip-rule="evenodd" d="M34.8671 15.9806C33.525 14.3796 31.5553 13.4615 29.463 13.4615C29.1124 13.4615 28.768 13.4875 28.431 13.537C28.1988 12.0384 26.7822 10.0549 25.4093 8.43219V3.60904C25.4093 3.43134 25.3259 3.26379 25.1838 3.15607C25.0416 3.04828 24.8568 3.01297 24.685 3.06018L23.7523 3.31616C23.2545 3.45282 22.8194 3.72263 22.4821 4.08011L21.9922 1.83795C21.935 1.5762 21.7022 1.38953 21.433 1.38953H20.4341V0.569366C20.4341 0.254913 20.178 0 19.8619 0C19.5458 0 19.2897 0.254913 19.2897 0.569366V3.43536C19.2897 3.74979 19.5458 4.0047 19.8619 4.0047C20.178 4.0047 20.4341 3.74979 20.4341 3.43536V2.52826H20.9719L21.6766 5.75424C21.3751 6.07111 21.1711 6.46375 21.0853 6.89615L19.4386 8.6973C19.226 8.9299 19.2431 9.29004 19.4769 9.50159C19.5865 9.60089 19.7244 9.64978 19.8618 9.64978C20.0172 9.64978 20.1722 9.58707 20.2852 9.46356L21.2795 8.3761C21.3516 8.52094 21.4392 8.65955 21.5425 8.78946C22.1907 9.60431 23.0873 10.8507 23.6787 12.1617C24.3167 13.5758 24.4674 14.751 24.1268 15.6548C23.6296 16.9738 22.1746 17.9888 20.2347 18.3695C18.164 18.7762 16.113 18.3427 15.1315 17.291C14.6992 16.8277 14.5056 16.3678 14.5396 15.8851C14.6 15.0266 15.3669 13.9963 16.8187 12.8225C16.8204 12.8211 16.9375 12.6906 16.939 12.6883C17.3873 12.0463 17.4436 11.2192 17.0833 10.5226C16.7186 9.81757 15.997 9.37961 15.2001 9.37961H6.94391C5.36469 9.37961 4.06592 10.5937 3.93878 12.133C3.6098 12.4659 2.84222 13.2808 2.06799 14.3764C0.69574 16.3183 0 18.1305 0 19.7627C0 20.0771 0.256104 20.3321 0.572205 20.3321H1.79413H2.5304L2.52972 20.3564C2.52869 20.3901 2.52771 20.4238 2.52771 20.4575C2.52771 23.0222 4.62469 25.1087 7.20227 25.1087C9.37109 25.1087 11.1995 23.6313 11.7247 21.6348H24.9406C25.4659 23.6312 27.2942 25.1087 29.463 25.1087C32.0406 25.1087 34.1376 23.0222 34.1376 20.4575C34.1376 19.5177 33.8551 18.6427 33.3715 17.9104L34.7843 16.7906C34.9048 16.6951 34.9814 16.5553 34.9971 16.403C35.0126 16.2505 34.9658 16.0982 34.8671 15.9806ZM11.8803 10.5182H15.2001C15.5719 10.5182 15.8955 10.7146 16.0656 11.0436C16.1932 11.2902 16.2097 11.5632 16.119 11.8113H11.8803V10.5182ZM10.7358 10.5182H6.94391C6.11127 10.5182 5.40387 11.062 5.1615 11.8113H10.7358V10.5182ZM7.20215 23.9701C5.25562 23.9701 3.67206 22.3944 3.67206 20.4576C3.67206 20.4156 3.67328 20.3738 3.67474 20.3322H4.89478C4.89258 20.3737 4.89124 20.4156 4.89124 20.4576C4.89124 21.7255 5.92786 22.7569 7.20209 22.7569C8.47626 22.7569 9.513 21.7255 9.513 20.4576C9.513 20.4156 9.51166 20.3737 9.50946 20.3322H10.7296C10.731 20.3739 10.7322 20.4156 10.7322 20.4576C10.7323 22.3943 9.14868 23.9701 7.20215 23.9701ZM6.04272 20.3322C6.03827 20.3735 6.03577 20.4153 6.03577 20.4576C6.03577 21.0975 6.55908 21.6182 7.20215 21.6182C7.8454 21.6182 8.36865 21.0975 8.36865 20.4576C8.36865 20.4153 8.36621 20.3735 8.36169 20.3322H6.04272ZM10.9574 19.1934H2.55023C2.73944 18.649 3.08948 17.8496 3.69299 17.0792C5.0744 15.3156 7.09491 14.5135 9.69678 14.6956C10.8501 14.7764 11.5746 15.0787 11.8505 15.5944C12.211 16.2686 11.9105 17.4786 10.9574 19.1934ZM11.8758 20.4961H22.4327L22.4323 20.4767C22.432 20.4704 22.4318 20.464 22.4318 20.4576C22.4318 19.8633 22.5069 19.286 22.6478 18.7345C21.9997 19.0722 21.2613 19.3287 20.4562 19.4868C17.9726 19.9743 15.5533 19.4166 14.2928 18.0659C13.6424 17.369 13.3414 16.6085 13.3979 15.8055C13.4618 14.8997 13.9789 13.9582 14.9708 12.9502H4.7373C4.06989 13.6323 1.50439 16.4154 1.17853 19.1935H1.34814C1.52448 18.5907 1.92981 17.4925 2.75891 16.4197C3.87952 14.9694 6.00647 13.296 9.77704 13.5598C11.3498 13.6698 12.3873 14.1744 12.8607 15.0595C13.6155 16.4708 12.7333 18.3955 11.8474 19.9424C11.8663 20.1125 11.8768 20.2847 11.8768 20.4576C11.8768 20.4643 11.8765 20.4709 11.8763 20.4775C11.876 20.4837 11.8758 20.4899 11.8758 20.4961ZM24.0566 4.41388L24.2648 4.35672V7.14172C23.6764 6.50668 23.177 6.00681 22.8951 5.73053C22.9839 5.1091 23.4359 4.58423 24.0566 4.41388ZM22.1932 7.20374C22.1534 7.52069 22.241 7.83286 22.4398 8.08267C24.8244 11.0808 25.4777 13.2357 25.4454 14.7195C26.0126 14.3251 26.6406 14.0119 27.3124 13.7966C27.146 11.9528 23.9918 8.44177 22.3309 6.77832C22.2592 6.90829 22.2122 7.05191 22.1932 7.20374ZM29.463 23.9701C27.5165 23.9701 25.9329 22.3944 25.9329 20.4576C25.9329 18.5208 27.5165 16.9451 29.463 16.9451C31.4095 16.9451 32.9932 18.5208 32.9932 20.4576C32.9932 22.3944 31.4095 23.9701 29.463 23.9701ZM29.463 15.8063C30.6844 15.8063 31.7975 16.2754 32.6311 17.0414L33.5908 16.2806C32.4929 15.2063 31.0182 14.6001 29.463 14.6001C26.217 14.6001 23.5762 17.2277 23.5762 20.4575C23.5762 20.4642 23.5764 20.4708 23.5767 20.4775C23.5768 20.4837 23.5771 20.4898 23.5771 20.4961H24.7894L24.7889 20.4793C24.7887 20.472 24.7885 20.4648 24.7885 20.4575C24.7885 17.8928 26.8855 15.8063 29.463 15.8063Z" fill="#333333"/>
</svg>
