<svg width="20" height="21" viewBox="0 0 20 21" fill="none" xmlns="http://www.w3.org/2000/svg">
<path fill-rule="evenodd" clip-rule="evenodd" d="M19.6428 1.40002H17.1428V0.349976C17.1428 0.156494 16.9832 0 16.7858 0H14.2858C14.0883 0 13.9286 0.156494 13.9286 0.349976V1.40002H6.07141V0.349976C6.07141 0.156494 5.91174 0 5.71423 0H3.21423C3.01685 0 2.85718 0.156494 2.85718 0.349976V1.40002H0.357178C0.159668 1.40002 0 1.5564 0 1.75V5.59998V20.65C0 20.8435 0.159668 21 0.357178 21H19.6428C19.8403 21 20 20.8435 20 20.65V5.59998V1.75C20 1.5564 19.8403 1.40002 19.6428 1.40002ZM14.6428 0.699951H16.4286V1.75V2.79993H14.6428V1.75V0.699951ZM5.35718 0.699951H3.57141V1.75V2.79993H5.35718V1.75V0.699951ZM0.714233 2.09998H2.85706V3.15002C2.85706 3.34351 3.01672 3.5 3.21423 3.5H5.71423C5.91174 3.5 6.07141 3.34351 6.07141 3.15002V2.09998H13.9285V3.15002C13.9285 3.34351 14.0881 3.5 14.2856 3.5H16.7856C16.9832 3.5 17.1428 3.34351 17.1428 3.15002V2.09998H19.2856V5.25H0.714233V2.09998ZM0.714233 5.94995V20.2999H19.2856V5.94995H0.714233Z" fill="#777777"/>
<path fill-rule="evenodd" clip-rule="evenodd" d="M9.94739 0H7.36841H6.63159H4.05261H3.3158H0V3.10339V3.79309V6.20691V6.89661V10H3.3158H4.05261H6.63159H7.36841H9.94739H10.6842H14V6.89661V6.20691V3.79309V3.10339V0H10.6842H9.94739ZM7.36841 0.689697H9.94739V3.10352H7.36841V0.689697ZM7.36841 6.20691H9.94739V3.79309H7.36841V6.20691ZM4.05261 3.79309H6.63159V6.20691H4.05261V3.79309ZM6.63159 0.689697H4.05261V3.10352H6.63159V0.689697ZM0.736816 0.689697H3.3158V3.10352H0.736816V0.689697ZM3.3158 3.79309H0.736816V6.20691H3.3158V3.79309ZM3.3158 9.31042H0.736816V6.89661H3.3158V9.31042ZM4.05261 9.31042H6.63159V6.89661H4.05261V9.31042ZM9.94739 9.31042H7.36841V6.89661H9.94739V9.31042ZM10.6842 9.31042H13.2632V6.89661H10.6842V9.31042ZM13.2632 6.20691H10.6842V3.79309H13.2632V6.20691ZM13.2632 3.10352V0.689697H10.6842V3.10352H13.2632Z" transform="translate(3 8)" fill="#777777"/>
</svg>
