<svg width="23" height="23" viewBox="0 0 23 23" fill="none" xmlns="http://www.w3.org/2000/svg">
<path fill-rule="evenodd" clip-rule="evenodd" d="M0.441162 0H2.55884C2.80249 0 3 0.176758 3 0.394775V2.60522C3 2.82324 2.80249 3 2.55884 3H0.441162C0.19751 3 0 2.82324 0 2.60522V0.394775C0 0.176758 0.19751 0 0.441162 0ZM0.882324 2.21045H2.11768V0.789429H0.882324V2.21045Z" transform="translate(4 7)" fill="#777777"/>
<path fill-rule="evenodd" clip-rule="evenodd" d="M0.441162 0H2.55884C2.80249 0 3 0.176758 3 0.394775V2.60522C3 2.82324 2.80249 3 2.55884 3H0.441162C0.19751 3 0 2.82324 0 2.60522V0.394775C0 0.176758 0.19751 0 0.441162 0ZM0.882324 2.21045H2.11768V0.789429H0.882324V2.21045Z" transform="translate(4 11)" fill="#777777"/>
<path fill-rule="evenodd" clip-rule="evenodd" d="M0.441162 0H2.55884C2.80249 0 3 0.176758 3 0.394775V2.60522C3 2.82324 2.80249 3 2.55884 3H0.441162C0.19751 3 0 2.82324 0 2.60522V0.394775C0 0.176758 0.19751 0 0.441162 0ZM0.882324 2.21045H2.11768V0.789429H0.882324V2.21045Z" transform="translate(4 17)" fill="#777777"/>
<path fill-rule="evenodd" clip-rule="evenodd" d="M0.441162 0H2.55884C2.80249 0 3 0.176758 3 0.394775V2.60522C3 2.82324 2.80249 3 2.55884 3H0.441162C0.19751 3 0 2.82324 0 2.60522V0.394775C0 0.176758 0.19751 0 0.441162 0ZM0.882324 2.21045H2.11768V0.789429H0.882324V2.21045Z" transform="translate(16 17)" fill="#777777"/>
<path fill-rule="evenodd" clip-rule="evenodd" d="M0.441162 0H2.55884C2.80249 0 3 0.176758 3 0.394775V2.60522C3 2.82324 2.80249 3 2.55884 3H0.441162C0.19751 3 0 2.82324 0 2.60522V0.394775C0 0.176758 0.19751 0 0.441162 0ZM0.882324 2.21045H2.11768V0.789429H0.882324V2.21045Z" transform="translate(8 7)" fill="#777777"/>
<path fill-rule="evenodd" clip-rule="evenodd" d="M0.441162 0H2.55884C2.80249 0 3 0.176758 3 0.394775V2.60522C3 2.82324 2.80249 3 2.55884 3H0.441162C0.19751 3 0 2.82324 0 2.60522V0.394775C0 0.176758 0.19751 0 0.441162 0ZM0.882324 2.21045H2.11768V0.789429H0.882324V2.21045Z" transform="translate(12 7)" fill="#777777"/>
<path fill-rule="evenodd" clip-rule="evenodd" d="M0.441162 0H2.55884C2.80249 0 3 0.176758 3 0.394775V2.60522C3 2.82324 2.80249 3 2.55884 3H0.441162C0.19751 3 0 2.82324 0 2.60522V0.394775C0 0.176758 0.19751 0 0.441162 0ZM0.882324 2.21045H2.11768V0.789429H0.882324V2.21045Z" transform="translate(8 11)" fill="#777777"/>
<path fill-rule="evenodd" clip-rule="evenodd" d="M0.441162 0H2.55884C2.80249 0 3 0.176758 3 0.394775V2.60522C3 2.82324 2.80249 3 2.55884 3H0.441162C0.19751 3 0 2.82324 0 2.60522V0.394775C0 0.176758 0.19751 0 0.441162 0ZM0.882324 2.21045H2.11768V0.789429H0.882324V2.21045Z" transform="translate(12 11)" fill="#777777"/>
<path fill-rule="evenodd" clip-rule="evenodd" d="M0.441162 0H2.55884C2.80249 0 3 0.176758 3 0.394775V2.60522C3 2.82324 2.80249 3 2.55884 3H0.441162C0.19751 3 0 2.82324 0 2.60522V0.394775C0 0.176758 0.19751 0 0.441162 0ZM0.882324 2.21045H2.11768V0.789429H0.882324V2.21045Z" transform="translate(16 7)" fill="#777777"/>
<path fill-rule="evenodd" clip-rule="evenodd" d="M0.441162 0H2.55884C2.80249 0 3 0.176758 3 0.394775V2.60522C3 2.82324 2.80249 3 2.55884 3H0.441162C0.19751 3 0 2.82324 0 2.60522V0.394775C0 0.176758 0.19751 0 0.441162 0ZM0.882324 2.21045H2.11768V0.789429H0.882324V2.21045Z" transform="translate(16 11)" fill="#777777"/>
<path fill-rule="evenodd" clip-rule="evenodd" d="M20.8657 22.1016H22.5508C22.7988 22.1016 23 22.3027 23 22.5508C23 22.7988 22.7988 23 22.5508 23H0.449219C0.201172 23 0 22.7988 0 22.5508C0 22.3027 0.201172 22.1016 0.449219 22.1016H2.13428V4.67468C2.13428 4.42664 2.33545 4.22546 2.5835 4.22546H5.07678V2.60547C5.07678 2.35742 5.27795 2.15625 5.526 2.15625H7.99609V0.449219C7.99609 0.201172 8.19727 0 8.44531 0H14.5547C14.8027 0 15.0039 0.201172 15.0039 0.449219V2.15625H17.474C17.7222 2.15625 17.9232 2.35742 17.9232 2.60547V4.22546H20.4165C20.6646 4.22546 20.8657 4.42664 20.8657 4.67468V22.1016ZM14.1055 0.898438H8.89453V2.15625H14.1055V0.898438ZM13.3867 22.1016H10.2786L13.3867 18.9934V22.1016ZM13.3574 17.7521C13.3668 17.7427 13.3767 17.734 13.3867 17.7256V16.7109H12.4948L9.61328 19.5923V21.4962L13.3574 17.7521ZM9.61328 18.3217V16.7109H11.224L9.61328 18.3217ZM16.9585 22.1016H19.9673V5.1239H11.5685C11.3203 5.1239 11.1193 4.92285 11.1193 4.67468C11.1193 4.42664 11.3203 4.22546 11.5685 4.22546H17.0248V3.05469H5.97522V4.22546H8.01941C8.26746 4.22546 8.46863 4.42664 8.46863 4.67468C8.46863 4.92285 8.26746 5.1239 8.01941 5.1239H3.03271V22.1016H8.71484V16.7109H8.55762C8.30945 16.7109 8.1084 16.5098 8.1084 16.2617C8.1084 16.0137 8.30945 15.8125 8.55762 15.8125H14.4424C14.6904 15.8125 14.8916 16.0137 14.8916 16.2617C14.8916 16.5098 14.6904 16.7109 14.4424 16.7109H14.2852V22.1016H16.9585Z" fill="#777777"/>
<path d="M0.8535 0.1465C0.7605 0.0535 0.6315 0 0.5 0C0.3685 0 0.2395 0.0535 0.1465 0.1465C0.0535 0.2395 0 0.3685 0 0.5C0 0.6315 0.0535 0.7605 0.1465 0.8535C0.2395 0.947 0.3685 1 0.5 1C0.6315 1 0.7605 0.947 0.8535 0.8535C0.9465 0.7605 1 0.6315 1 0.5C1 0.3685 0.9465 0.2395 0.8535 0.1465Z" transform="translate(9 4)" fill="#777777"/>
</svg>
